<mxfile host="Electron" agent="Mozilla/5.0 (Windows NT 10.0; Win64; x64) AppleWebKit/537.36 (KHTML, like Gecko) draw.io/26.0.4 Chrome/128.0.6613.186 Electron/32.2.5 Safari/537.36" version="26.0.4">
  <diagram id="R2lEEEUBdFMjLlhIrx00" name="Page-1">
    <mxGraphModel dx="1077" dy="627" grid="1" gridSize="10" guides="1" tooltips="1" connect="1" arrows="1" fold="1" page="1" pageScale="1" pageWidth="1100" pageHeight="850" math="0" shadow="0" extFonts="Permanent Marker^https://fonts.googleapis.com/css?family=Permanent+Marker">
      <root>
        <mxCell id="0" />
        <mxCell id="1" parent="0" />
        <mxCell id="pPWnmUozEy8e7u2UdUcV-15" style="edgeStyle=orthogonalEdgeStyle;rounded=0;orthogonalLoop=1;jettySize=auto;html=1;startArrow=ERzeroToOne;startFill=0;endArrow=ERone;endFill=0;" edge="1" parent="1" source="pPWnmUozEy8e7u2UdUcV-3" target="pPWnmUozEy8e7u2UdUcV-38">
          <mxGeometry relative="1" as="geometry">
            <Array as="points">
              <mxPoint x="1039" y="605" />
            </Array>
          </mxGeometry>
        </mxCell>
        <mxCell id="pPWnmUozEy8e7u2UdUcV-16" style="edgeStyle=orthogonalEdgeStyle;rounded=0;orthogonalLoop=1;jettySize=auto;html=1;startArrow=ERmany;startFill=0;endArrow=ERone;endFill=0;" edge="1" parent="1" source="pPWnmUozEy8e7u2UdUcV-3" target="pPWnmUozEy8e7u2UdUcV-5">
          <mxGeometry relative="1" as="geometry" />
        </mxCell>
        <mxCell id="pPWnmUozEy8e7u2UdUcV-3" value="File" style="swimlane;childLayout=stackLayout;horizontal=1;startSize=50;horizontalStack=0;rounded=1;fontSize=14;fontStyle=0;strokeWidth=2;resizeParent=0;resizeLast=1;shadow=0;dashed=0;align=center;arcSize=4;whiteSpace=wrap;html=1;" vertex="1" parent="1">
          <mxGeometry x="739" y="515" width="160" height="220" as="geometry" />
        </mxCell>
        <mxCell id="pPWnmUozEy8e7u2UdUcV-4" value="+ Hash&lt;div&gt;+ Path&lt;br&gt;&lt;div&gt;+ Type&lt;/div&gt;&lt;div&gt;+ Size&lt;/div&gt;&lt;div&gt;+ Date modified&lt;/div&gt;&lt;div&gt;+ Missing&lt;/div&gt;&lt;/div&gt;" style="align=left;strokeColor=none;fillColor=none;spacingLeft=4;fontSize=12;verticalAlign=top;resizable=0;rotatable=0;part=1;html=1;" vertex="1" parent="pPWnmUozEy8e7u2UdUcV-3">
          <mxGeometry y="50" width="160" height="170" as="geometry" />
        </mxCell>
        <mxCell id="pPWnmUozEy8e7u2UdUcV-14" style="edgeStyle=orthogonalEdgeStyle;rounded=0;orthogonalLoop=1;jettySize=auto;html=1;endArrow=ERzeroToOne;endFill=0;startArrow=ERmany;startFill=0;" edge="1" parent="1" source="pPWnmUozEy8e7u2UdUcV-5" target="pPWnmUozEy8e7u2UdUcV-7">
          <mxGeometry relative="1" as="geometry" />
        </mxCell>
        <mxCell id="pPWnmUozEy8e7u2UdUcV-28" style="edgeStyle=orthogonalEdgeStyle;rounded=0;orthogonalLoop=1;jettySize=auto;html=1;endArrow=ERmany;endFill=0;startArrow=ERmany;startFill=0;" edge="1" parent="1" source="pPWnmUozEy8e7u2UdUcV-5" target="pPWnmUozEy8e7u2UdUcV-25">
          <mxGeometry relative="1" as="geometry">
            <Array as="points">
              <mxPoint x="819" y="225" />
              <mxPoint x="1069" y="225" />
            </Array>
          </mxGeometry>
        </mxCell>
        <mxCell id="pPWnmUozEy8e7u2UdUcV-5" value="Folder" style="swimlane;childLayout=stackLayout;horizontal=1;startSize=50;horizontalStack=0;rounded=1;fontSize=14;fontStyle=0;strokeWidth=2;resizeParent=0;resizeLast=1;shadow=0;dashed=0;align=center;arcSize=4;whiteSpace=wrap;html=1;" vertex="1" parent="1">
          <mxGeometry x="739" y="275" width="160" height="145" as="geometry" />
        </mxCell>
        <mxCell id="pPWnmUozEy8e7u2UdUcV-6" value="+ Hash&lt;div&gt;+ Path&lt;br&gt;&lt;div&gt;+ Time changed&lt;/div&gt;&lt;div&gt;+ Missing&lt;br&gt;+ Index files (bool)&lt;/div&gt;&lt;/div&gt;" style="align=left;strokeColor=none;fillColor=none;spacingLeft=4;fontSize=12;verticalAlign=top;resizable=0;rotatable=0;part=1;html=1;" vertex="1" parent="pPWnmUozEy8e7u2UdUcV-5">
          <mxGeometry y="50" width="160" height="95" as="geometry" />
        </mxCell>
        <mxCell id="pPWnmUozEy8e7u2UdUcV-29" style="edgeStyle=orthogonalEdgeStyle;rounded=0;orthogonalLoop=1;jettySize=auto;html=1;startArrow=ERone;startFill=0;endArrow=ERmany;endFill=0;" edge="1" parent="1" source="pPWnmUozEy8e7u2UdUcV-7" target="pPWnmUozEy8e7u2UdUcV-18">
          <mxGeometry relative="1" as="geometry">
            <Array as="points">
              <mxPoint x="1439" y="335" />
            </Array>
          </mxGeometry>
        </mxCell>
        <mxCell id="pPWnmUozEy8e7u2UdUcV-7" value="Category" style="swimlane;childLayout=stackLayout;horizontal=1;startSize=50;horizontalStack=0;rounded=1;fontSize=14;fontStyle=0;strokeWidth=2;resizeParent=0;resizeLast=1;shadow=0;dashed=0;align=center;arcSize=4;whiteSpace=wrap;html=1;" vertex="1" parent="1">
          <mxGeometry x="1179" y="275" width="160" height="120" as="geometry" />
        </mxCell>
        <mxCell id="pPWnmUozEy8e7u2UdUcV-8" value="+ Name" style="align=left;strokeColor=none;fillColor=none;spacingLeft=4;fontSize=12;verticalAlign=top;resizable=0;rotatable=0;part=1;html=1;" vertex="1" parent="pPWnmUozEy8e7u2UdUcV-7">
          <mxGeometry y="50" width="160" height="70" as="geometry" />
        </mxCell>
        <mxCell id="pPWnmUozEy8e7u2UdUcV-9" value="" style="endArrow=none;dashed=1;html=1;dashPattern=1 3;strokeWidth=2;rounded=0;" edge="1" parent="1">
          <mxGeometry width="50" height="50" relative="1" as="geometry">
            <mxPoint x="1099" y="835" as="sourcePoint" />
            <mxPoint x="1099" y="15" as="targetPoint" />
          </mxGeometry>
        </mxCell>
        <mxCell id="pPWnmUozEy8e7u2UdUcV-10" value="Physical space" style="text;html=1;align=center;verticalAlign=middle;resizable=0;points=[];autosize=1;strokeColor=none;fillColor=none;fontStyle=4" vertex="1" parent="1">
          <mxGeometry x="764" y="25" width="100" height="30" as="geometry" />
        </mxCell>
        <mxCell id="pPWnmUozEy8e7u2UdUcV-11" value="Virtual space" style="text;html=1;align=center;verticalAlign=middle;resizable=0;points=[];autosize=1;strokeColor=none;fillColor=none;fontStyle=4" vertex="1" parent="1">
          <mxGeometry x="1364" y="25" width="90" height="30" as="geometry" />
        </mxCell>
        <mxCell id="pPWnmUozEy8e7u2UdUcV-17" style="edgeStyle=orthogonalEdgeStyle;rounded=0;orthogonalLoop=1;jettySize=auto;html=1;startArrow=ERmany;startFill=0;endArrow=ERmany;endFill=0;" edge="1" parent="1" source="pPWnmUozEy8e7u2UdUcV-12">
          <mxGeometry relative="1" as="geometry">
            <mxPoint x="1259" y="393" as="targetPoint" />
            <Array as="points">
              <mxPoint x="1259" y="393" />
            </Array>
          </mxGeometry>
        </mxCell>
        <mxCell id="pPWnmUozEy8e7u2UdUcV-20" style="edgeStyle=orthogonalEdgeStyle;rounded=0;orthogonalLoop=1;jettySize=auto;html=1;startArrow=ERone;startFill=0;endArrow=ERmany;endFill=0;" edge="1" parent="1" source="pPWnmUozEy8e7u2UdUcV-12" target="pPWnmUozEy8e7u2UdUcV-18">
          <mxGeometry relative="1" as="geometry" />
        </mxCell>
        <mxCell id="pPWnmUozEy8e7u2UdUcV-22" style="edgeStyle=orthogonalEdgeStyle;rounded=0;orthogonalLoop=1;jettySize=auto;html=1;startArrow=ERone;startFill=0;endArrow=ERzeroToOne;endFill=0;" edge="1" parent="1" source="pPWnmUozEy8e7u2UdUcV-38" target="pPWnmUozEy8e7u2UdUcV-5">
          <mxGeometry relative="1" as="geometry">
            <Array as="points">
              <mxPoint x="1039" y="365" />
            </Array>
          </mxGeometry>
        </mxCell>
        <mxCell id="pPWnmUozEy8e7u2UdUcV-12" value="Content" style="swimlane;childLayout=stackLayout;horizontal=1;startSize=50;horizontalStack=0;rounded=1;fontSize=14;fontStyle=0;strokeWidth=2;resizeParent=0;resizeLast=1;shadow=0;dashed=0;align=center;arcSize=4;whiteSpace=wrap;html=1;" vertex="1" parent="1">
          <mxGeometry x="1179" y="430" width="160" height="120" as="geometry" />
        </mxCell>
        <mxCell id="pPWnmUozEy8e7u2UdUcV-13" value="+ &lt;span style=&quot;background-color: transparent; color: light-dark(rgb(0, 0, 0), rgb(255, 255, 255));&quot;&gt;Cover image path&lt;/span&gt;" style="align=left;strokeColor=none;fillColor=none;spacingLeft=4;fontSize=12;verticalAlign=top;resizable=0;rotatable=0;part=1;html=1;" vertex="1" parent="pPWnmUozEy8e7u2UdUcV-12">
          <mxGeometry y="50" width="160" height="70" as="geometry" />
        </mxCell>
        <mxCell id="pPWnmUozEy8e7u2UdUcV-46" style="edgeStyle=orthogonalEdgeStyle;rounded=0;orthogonalLoop=1;jettySize=auto;html=1;startArrow=ERoneToMany;startFill=0;endArrow=ERone;endFill=0;" edge="1" parent="1" source="pPWnmUozEy8e7u2UdUcV-18" target="pPWnmUozEy8e7u2UdUcV-44">
          <mxGeometry relative="1" as="geometry" />
        </mxCell>
        <mxCell id="pPWnmUozEy8e7u2UdUcV-18" value="Attribute value" style="swimlane;childLayout=stackLayout;horizontal=1;startSize=50;horizontalStack=0;rounded=1;fontSize=14;fontStyle=0;strokeWidth=2;resizeParent=0;resizeLast=1;shadow=0;dashed=0;align=center;arcSize=4;whiteSpace=wrap;html=1;" vertex="1" parent="1">
          <mxGeometry x="1409" y="430" width="160" height="120" as="geometry" />
        </mxCell>
        <mxCell id="pPWnmUozEy8e7u2UdUcV-19" value="+ Value" style="align=left;strokeColor=none;fillColor=none;spacingLeft=4;fontSize=12;verticalAlign=top;resizable=0;rotatable=0;part=1;html=1;" vertex="1" parent="pPWnmUozEy8e7u2UdUcV-18">
          <mxGeometry y="50" width="160" height="70" as="geometry" />
        </mxCell>
        <mxCell id="pPWnmUozEy8e7u2UdUcV-27" style="edgeStyle=orthogonalEdgeStyle;rounded=0;orthogonalLoop=1;jettySize=auto;html=1;endArrow=ERmany;endFill=0;startArrow=ERone;startFill=0;" edge="1" parent="1" source="pPWnmUozEy8e7u2UdUcV-26" target="pPWnmUozEy8e7u2UdUcV-7">
          <mxGeometry relative="1" as="geometry">
            <Array as="points">
              <mxPoint x="1129" y="225" />
              <mxPoint x="1259" y="225" />
            </Array>
          </mxGeometry>
        </mxCell>
        <mxCell id="pPWnmUozEy8e7u2UdUcV-32" value="" style="group" vertex="1" connectable="0" parent="1">
          <mxGeometry x="1019" y="15" width="240" height="160" as="geometry" />
        </mxCell>
        <mxCell id="pPWnmUozEy8e7u2UdUcV-25" value="Archive" style="swimlane;childLayout=stackLayout;horizontal=1;startSize=50;horizontalStack=0;rounded=1;fontSize=14;fontStyle=0;strokeWidth=2;resizeParent=0;resizeLast=1;shadow=0;dashed=0;align=center;arcSize=4;whiteSpace=wrap;html=1;" vertex="1" parent="pPWnmUozEy8e7u2UdUcV-32">
          <mxGeometry y="40" width="160" height="120" as="geometry" />
        </mxCell>
        <mxCell id="pPWnmUozEy8e7u2UdUcV-26" value="+ Path&lt;div&gt;+ Name&lt;/div&gt;" style="align=left;strokeColor=none;fillColor=none;spacingLeft=4;fontSize=12;verticalAlign=top;resizable=0;rotatable=0;part=1;html=1;" vertex="1" parent="pPWnmUozEy8e7u2UdUcV-25">
          <mxGeometry y="50" width="160" height="70" as="geometry" />
        </mxCell>
        <mxCell id="pPWnmUozEy8e7u2UdUcV-31" value="Similar to Vault in Obsidian" style="shape=note2;boundedLbl=1;whiteSpace=wrap;html=1;size=25;verticalAlign=top;align=center;" vertex="1" parent="pPWnmUozEy8e7u2UdUcV-32">
          <mxGeometry x="120" width="120" height="60" as="geometry" />
        </mxCell>
        <mxCell id="pPWnmUozEy8e7u2UdUcV-33" style="edgeStyle=orthogonalEdgeStyle;rounded=0;orthogonalLoop=1;jettySize=auto;html=1;exitX=0.874;exitY=0.005;exitDx=0;exitDy=0;exitPerimeter=0;startArrow=ERzeroToOne;startFill=0;endArrow=ERzeroToMany;endFill=0;" edge="1" parent="1" source="pPWnmUozEy8e7u2UdUcV-7" target="pPWnmUozEy8e7u2UdUcV-7">
          <mxGeometry relative="1" as="geometry">
            <Array as="points">
              <mxPoint x="1319" y="255" />
              <mxPoint x="1359" y="255" />
              <mxPoint x="1359" y="295" />
            </Array>
          </mxGeometry>
        </mxCell>
        <mxCell id="pPWnmUozEy8e7u2UdUcV-34" value="parent category" style="edgeLabel;html=1;align=center;verticalAlign=middle;resizable=0;points=[];" vertex="1" connectable="0" parent="pPWnmUozEy8e7u2UdUcV-33">
          <mxGeometry x="-0.1399" y="-1" relative="1" as="geometry">
            <mxPoint x="9" y="-11" as="offset" />
          </mxGeometry>
        </mxCell>
        <mxCell id="pPWnmUozEy8e7u2UdUcV-35" value="If file or folder is in DB it means it was 100% indexed" style="shape=note2;boundedLbl=1;whiteSpace=wrap;html=1;size=25;verticalAlign=top;align=center;" vertex="1" parent="1">
          <mxGeometry x="589" y="415" width="120" height="80" as="geometry" />
        </mxCell>
        <mxCell id="pPWnmUozEy8e7u2UdUcV-36" value="Cover image can be the first image found in folder/first frame of video/manually set" style="shape=note2;boundedLbl=1;whiteSpace=wrap;html=1;size=25;verticalAlign=top;align=center;" vertex="1" parent="1">
          <mxGeometry x="1119" y="515" width="120" height="90" as="geometry" />
        </mxCell>
        <mxCell id="pPWnmUozEy8e7u2UdUcV-37" value="Field type can be checkbox/string/&lt;div&gt;integer/date/time...&lt;/div&gt;" style="shape=note2;boundedLbl=1;whiteSpace=wrap;html=1;size=25;verticalAlign=top;align=center;" vertex="1" parent="1">
          <mxGeometry x="1779" y="445" width="120" height="90" as="geometry" />
        </mxCell>
        <mxCell id="pPWnmUozEy8e7u2UdUcV-39" style="edgeStyle=orthogonalEdgeStyle;rounded=0;orthogonalLoop=1;jettySize=auto;html=1;endArrow=ERzeroToOne;endFill=0;startArrow=ERone;startFill=0;" edge="1" parent="1" source="pPWnmUozEy8e7u2UdUcV-38" target="pPWnmUozEy8e7u2UdUcV-12">
          <mxGeometry relative="1" as="geometry" />
        </mxCell>
        <mxCell id="pPWnmUozEy8e7u2UdUcV-38" value="Node&lt;br&gt;Content is either file or folder" style="whiteSpace=wrap;html=1;align=center;" vertex="1" parent="1">
          <mxGeometry x="989" y="465" width="100" height="50" as="geometry" />
        </mxCell>
        <mxCell id="pPWnmUozEy8e7u2UdUcV-44" value="Attribute type" style="swimlane;childLayout=stackLayout;horizontal=1;startSize=50;horizontalStack=0;rounded=1;fontSize=14;fontStyle=0;strokeWidth=2;resizeParent=0;resizeLast=1;shadow=0;dashed=0;align=center;arcSize=4;whiteSpace=wrap;html=1;" vertex="1" parent="1">
          <mxGeometry x="1609" y="430" width="160" height="120" as="geometry" />
        </mxCell>
        <mxCell id="pPWnmUozEy8e7u2UdUcV-45" value="+ Field name&lt;div&gt;+ Field type&lt;/div&gt;" style="align=left;strokeColor=none;fillColor=none;spacingLeft=4;fontSize=12;verticalAlign=top;resizable=0;rotatable=0;part=1;html=1;" vertex="1" parent="pPWnmUozEy8e7u2UdUcV-44">
          <mxGeometry y="50" width="160" height="70" as="geometry" />
        </mxCell>
        <mxCell id="pPWnmUozEy8e7u2UdUcV-47" style="edgeStyle=orthogonalEdgeStyle;rounded=0;orthogonalLoop=1;jettySize=auto;html=1;exitX=0.25;exitY=0;exitDx=0;exitDy=0;startArrow=ERzeroToOne;startFill=0;endArrow=ERzeroToMany;endFill=0;" edge="1" parent="1" source="pPWnmUozEy8e7u2UdUcV-5" target="pPWnmUozEy8e7u2UdUcV-5">
          <mxGeometry relative="1" as="geometry">
            <Array as="points">
              <mxPoint x="779" y="255" />
              <mxPoint x="709" y="255" />
              <mxPoint x="709" y="305" />
            </Array>
          </mxGeometry>
        </mxCell>
        <mxCell id="pPWnmUozEy8e7u2UdUcV-49" value="parent folder" style="edgeLabel;html=1;align=center;verticalAlign=middle;resizable=0;points=[];" vertex="1" connectable="0" parent="pPWnmUozEy8e7u2UdUcV-47">
          <mxGeometry x="-0.1402" y="-2" relative="1" as="geometry">
            <mxPoint x="13" y="-8" as="offset" />
          </mxGeometry>
        </mxCell>
        <mxCell id="pPWnmUozEy8e7u2UdUcV-52" style="edgeStyle=orthogonalEdgeStyle;rounded=0;orthogonalLoop=1;jettySize=auto;html=1;startArrow=ERzeroToMany;startFill=0;endArrow=ERzeroToMany;endFill=0;" edge="1" parent="1" target="pPWnmUozEy8e7u2UdUcV-7">
          <mxGeometry relative="1" as="geometry">
            <mxPoint x="1199" y="275" as="sourcePoint" />
            <Array as="points">
              <mxPoint x="1199" y="275" />
              <mxPoint x="1199" y="255" />
              <mxPoint x="1159" y="255" />
              <mxPoint x="1159" y="295" />
            </Array>
          </mxGeometry>
        </mxCell>
        <mxCell id="pPWnmUozEy8e7u2UdUcV-54" value="associated category" style="edgeLabel;html=1;align=center;verticalAlign=middle;resizable=0;points=[];" vertex="1" connectable="0" parent="pPWnmUozEy8e7u2UdUcV-52">
          <mxGeometry x="-0.0124" relative="1" as="geometry">
            <mxPoint x="29" y="-10" as="offset" />
          </mxGeometry>
        </mxCell>
        <mxCell id="pPWnmUozEy8e7u2UdUcV-55" value="This creates cyclic graph" style="shape=note2;boundedLbl=1;whiteSpace=wrap;html=1;size=25;verticalAlign=top;align=center;" vertex="1" parent="1">
          <mxGeometry x="1039" y="245" width="100" height="60" as="geometry" />
        </mxCell>
      </root>
    </mxGraphModel>
  </diagram>
</mxfile>
